<svg xmlns="http://www.w3.org/2000/svg" version="1.1" xmlns:xlink="http://www.w3.org/1999/xlink" xmlns:svgjs="http://svgjs.dev/svgjs" width="1000" height="1000" viewBox="0 0 1000 1000"><rect width="1000" height="1000" fill="#161618"></rect><g transform="matrix(0.7,0,0,0.7,150.13661062289054,274.7825101214575)"><svg viewBox="0 0 383 247" data-background-color="#161618" preserveAspectRatio="xMidYMid meet" height="644" width="1000" xmlns="http://www.w3.org/2000/svg" xmlns:xlink="http://www.w3.org/1999/xlink"><g id="tight-bounds" transform="matrix(1,0,0,1,-0.07474540330053969,-0.09999999999999432)"><svg viewBox="0 0 383.14948710988506 247.2" height="247.2" width="383.14948710988506"><g><svg viewBox="0 0 395.52000000000004 255.18119504087815" height="247.2" width="383.14948710988506"><g transform="matrix(1,0,0,1,0,157.71221589708014)"><svg viewBox="0 0 395.52000000000004 97.46897914379802" height="97.46897914379802" width="395.52000000000004"><g><svg viewBox="0 0 395.52000000000004 97.46897914379802" height="97.46897914379802" width="395.52000000000004"><g><svg viewBox="0 0 395.52000000000004 97.46897914379802" height="97.46897914379802" width="395.52000000000004"><g transform="matrix(1,0,0,1,0,0)"><svg width="395.52000000000004" viewBox="1.2200000286102295 -21.579999923706055 88.95999908447266 21.920000076293945" height="97.46897914379802" data-palette-color="#ffffff"><path d="M11.82-21.58L11.82-21.58Q14.4-21.58 16.43-20.73 18.46-19.87 19.34-18.85L19.34-18.85Q19.34-17.19 18.77-16.09 18.21-14.99 17.09-14.99L17.09-14.99Q16.16-14.99 15.6-15.48 15.04-15.97 14.45-17.09L14.45-17.09Q13.33-19.34 11.18-19.34L11.18-19.34Q9.08-19.34 7.84-17.21 6.59-15.09 6.59-11.87L6.59-11.87Q6.59-7.47 8.4-5.35 10.21-3.22 12.99-3.22L12.99-3.22Q13.72-3.22 14.4-3.3 15.09-3.37 15.67-3.54 16.26-3.71 16.7-3.86 17.14-4 17.6-4.3 18.07-4.59 18.26-4.71 18.46-4.83 18.85-5.1 19.24-5.37 19.24-5.37L19.24-5.37Q19.34-5.32 19.48-5.08 19.63-4.83 19.63-4.59L19.63-4.59Q19.63-4.05 19.34-3.66L19.34-3.66Q18.6-2.34 16.46-1.03 14.31 0.29 11.67 0.29L11.67 0.29Q7.32 0.29 4.27-2.88 1.22-6.05 1.22-10.64L1.22-10.64Q1.22-15.09 4.15-18.33 7.08-21.58 11.82-21.58ZM30.61-2.83L30.61-2.83Q31.93-2.83 32.88-3.52 33.84-4.2 33.84-5.08L33.84-5.08 33.84-10.06Q33.49-9.91 32.39-9.57 31.3-9.23 30.71-8.98 30.12-8.74 29.34-8.3 28.56-7.86 28.2-7.23 27.83-6.59 27.83-5.86L27.83-5.86Q27.83-4.3 28.61-3.56 29.39-2.83 30.61-2.83ZM32.81-21.58L32.81-21.58Q35.84-21.58 37.35-20 38.86-18.41 38.86-14.55L38.86-14.55 38.86-4.93Q38.86-3.96 39.3-3.44 39.74-2.93 40.48-2.93L40.48-2.93Q41.21-2.93 42.14-3.56L42.14-3.56Q42.43-3.47 42.43-3.03L42.43-3.03Q42.43-2.05 42.14-1.56L42.14-1.56Q41.4-0.98 40.18-0.34 38.96 0.29 37.84 0.29L37.84 0.29Q36.72 0.29 35.64-0.54 34.57-1.37 34.23-2.34L34.23-2.34Q34.18-2.29 33.86-2.03 33.54-1.76 32.98-1.37 32.42-0.98 31.71-0.59 31-0.2 30.05 0.07 29.1 0.34 28.12 0.34L28.12 0.34Q25.68 0.34 24.14-1 22.6-2.34 22.6-4.69L22.6-4.69Q22.6-5.86 23.17-6.88 23.73-7.91 24.51-8.57 25.29-9.23 26.61-9.86 27.93-10.5 28.88-10.82 29.83-11.13 31.32-11.57 32.81-12.01 33.4-12.21L33.4-12.21Q33.84-12.4 33.84-12.99L33.84-12.99 33.84-15.67Q33.84-17.38 33.05-18.36 32.27-19.34 30.95-19.34L30.95-19.34Q29.49-19.34 28.66-18.43 27.83-17.53 27.83-15.87L27.83-15.87Q27.83-14.89 27.1-14.43 26.36-13.96 25.44-13.96L25.44-13.96Q23.63-13.96 22.9-15.14L22.9-15.14Q22.9-17.48 26.1-19.53 29.29-21.58 32.81-21.58ZM58.93-21.58L58.93-21.58Q61.62-21.58 62.93-19.97L62.93-19.97Q62.93-15.82 60.59-15.82L60.59-15.82Q59.71-15.82 58.69-16.8 57.66-17.77 56.59-17.77L56.59-17.77Q55.07-17.77 54.22-16.24 53.36-14.7 53.36-13.04L53.36-13.04 53.36-6.93Q53.36-3.96 53.71-2.54L53.71-2.54Q53.8-2.2 55-1.83 56.2-1.46 56.64-1.46L56.64-1.46Q56.78-1.46 56.81-0.76 56.83-0.05 56.78 0.2L56.78 0.2Q56.39 0.15 54.19 0 52-0.15 50.87-0.15L50.87-0.15Q49.7-0.15 47.48 0 45.26 0.15 44.87 0.2L44.87 0.2Q44.67 0 44.67-0.73 44.67-1.46 44.87-1.46L44.87-1.46Q45.45-1.46 46.65-1.83 47.85-2.2 47.94-2.54L47.94-2.54Q48.29-4 48.29-6.1L48.29-6.1 48.29-14.06Q48.29-16.36 47.5-17.19L47.5-17.19Q47.11-17.68 46.41-17.92 45.7-18.16 45.23-18.21 44.77-18.26 44.77-18.36L44.77-18.36Q44.77-19.78 45.01-19.82L45.01-19.82Q47.26-20.02 52.88-21.29L52.88-21.29Q52.88-21.29 53.05-21.34 53.22-21.39 53.27-21.39L53.27-21.39Q53.46-21.39 53.61-21.04 53.75-20.7 53.73-20.48 53.71-20.26 53.66-19.8 53.61-19.34 53.54-18.82 53.46-18.31 53.46-18.16L53.46-18.16Q54.34-19.48 55.85-20.53 57.37-21.58 58.93-21.58ZM86.96-16.31L86.96-16.31 86.96-6.64Q86.96-4.3 87.35-3.22L87.35-3.22Q87.49-2.98 87.91-2.83 88.32-2.69 88.76-2.64 89.2-2.59 89.57-2.59 89.93-2.59 89.98-2.54L89.98-2.54Q90.18-2.49 90.18-2.1L90.18-2.1Q90.18-1.9 90.08-1.44 89.98-0.98 89.79-0.98L89.79-0.98Q89.1-0.98 88.05-0.81 87-0.63 86.03-0.46 85.05-0.29 84.17-0.1 83.29 0.1 82.76 0.2 82.22 0.29 82.22 0.29L82.22 0.29Q81.88 0.29 81.88-0.49L81.88-0.49 81.88-2.64Q81.83-2.88 81.73-2.88L81.73-2.88Q80.61-1.66 78.75-0.68 76.9 0.29 74.89 0.29L74.89 0.29Q73.23 0.29 71.99-0.54 70.74-1.37 70.04-2.69 69.33-4 69.01-5.52 68.69-7.03 68.69-8.59L68.69-8.59 68.69-14.06Q68.69-16.36 67.91-17.19L67.91-17.19Q67.47-17.68 66.79-17.92 66.11-18.16 65.62-18.21 65.13-18.26 65.13-18.36L65.13-18.36Q65.13-19.78 65.37-19.82L65.37-19.82Q66.79-19.92 69.38-20.41 71.97-20.9 73.23-21.29L73.23-21.29Q73.28-21.29 73.43-21.34 73.58-21.39 73.63-21.39L73.63-21.39Q73.87-21.39 73.99-21.04 74.11-20.7 74.11-20.51L74.11-20.51Q73.67-17.19 73.67-16.21L73.67-16.21 73.67-10.35Q73.67-6.54 74.75-4.88 75.82-3.22 78.22-3.22L78.22-3.22Q79.78-3.22 80.85-4.17 81.93-5.13 81.93-6.01L81.93-6.01 81.93-14.06Q81.93-16.36 81.14-17.19L81.14-17.19Q80.75-17.68 80.05-17.92 79.34-18.16 78.85-18.21 78.36-18.26 78.36-18.36L78.36-18.36Q78.36-19.78 78.65-19.82L78.65-19.82Q80.02-19.92 82.61-20.41 85.2-20.9 86.47-21.29L86.47-21.29Q86.52-21.29 86.69-21.34 86.86-21.39 86.86-21.39L86.86-21.39Q87.1-21.39 87.25-21.04 87.39-20.7 87.35-20.51L87.35-20.51Q86.96-17.19 86.96-16.31Z" opacity="1" transform="matrix(1,0,0,1,0,0)" fill="#ffffff" class="undefined-text-0" data-fill-palette-color="primary" id="text-0"></path></svg></g></svg></g></svg></g></svg></g><g transform="matrix(1,0,0,1,130.40893541163558,0)"><svg viewBox="0 0 134.70212917672887 134.70212917672887" height="134.70212917672887" width="134.70212917672887"><g><svg></svg></g><g id="icon-0"><svg viewBox="0 0 134.70212917672887 134.70212917672887" height="134.70212917672887" width="134.70212917672887"><g><path xmlns="http://www.w3.org/2000/svg" d="M40.411 134.702c-22.318 0-40.411-18.092-40.411-40.411v-53.88c0-22.318 18.092-40.411 40.411-40.411h53.88c22.318 0 40.411 18.092 40.411 40.411v53.88c0 22.318-18.092 40.411-40.411 40.411z" fill="#ffffff" fill-rule="nonzero" stroke="none" stroke-width="1" stroke-linecap="butt" stroke-linejoin="miter" stroke-miterlimit="10" stroke-dasharray="" stroke-dashoffset="0" font-family="none" font-weight="none" font-size="none" text-anchor="none" style="mix-blend-mode: normal" data-fill-palette-color="accent"></path></g><g transform="matrix(1,0,0,1,29.464203788364436,53.37458289353997)"><svg viewBox="0 0 75.7737216 27.952963389648932" height="27.952963389648932" width="75.7737216"><g><svg xmlns="http://www.w3.org/2000/svg" xmlns:xlink="http://www.w3.org/1999/xlink" version="1.1" x="0" y="0" viewBox="0.29627254605293274 33.946922302246094 99.40641021728516 36.67107391357422" enable-background="new 0 33.947 100 36.669" xml:space="preserve" width="75.7737216" height="27.952963389648932" class="icon-a-0" data-fill-palette-color="quaternary" id="a-0"><g fill="#161618" data-fill-palette-color="quaternary"><path d="M15.524 55.357c-4.213 0-7.629 3.418-7.629 7.631s3.416 7.63 7.629 7.63c4.215 0 7.63-3.417 7.63-7.63S19.738 55.357 15.524 55.357zM15.524 66.189c-1.778 0-3.219-1.441-3.219-3.22s1.441-3.221 3.219-3.221c1.777 0 3.219 1.442 3.219 3.221C18.742 64.748 17.301 66.189 15.524 66.189z" fill="#161618" data-fill-palette-color="quaternary"></path><path d="M82.53 55.355c-4.215 0-7.632 3.417-7.632 7.629 0 4.214 3.417 7.631 7.632 7.631 4.212 0 7.63-3.417 7.63-7.631C90.16 58.772 86.742 55.355 82.53 55.355zM82.53 66.189c-1.778 0-3.222-1.441-3.222-3.22s1.443-3.221 3.222-3.221 3.223 1.442 3.223 3.221S84.309 66.189 82.53 66.189z" fill="#161618" data-fill-palette-color="quaternary"></path><path d="M78.23 44.515c0 0-18.764-8.75-24.754-10.018-5.987-1.268-26.597-0.115-28.554 1.151l-11.515 5.64L2.125 46.815 0.298 57.465c0 0-0.05 6.318 0.388 7.773h5.527l0.071-2.25c0-5.103 4.138-9.24 9.243-9.24 5.103 0 9.238 4.138 9.238 9.24l0.158 2.25h48.359l0.007-2.83c0-5.103 3.856-8.87 8.959-8.87s9.523 3.768 9.523 8.87l0.19 2.616c0 0 5.845 0.33 7.688-0.361 0 0 0.69-9.787-2.878-13.357C93.603 48.308 87.213 46.44 78.23 44.515zM25.956 45.896c0 0 2.363-5.01 4.943-6.924 1.911-1.627 12.446-1.583 12.446-1.583l0.389 9.715L25.956 45.896zM71.613 48.198l-24.698-0.978-0.577-9.846c9.154-0.344 19.576 4.549 25.563 8.06C77.89 48.946 71.613 48.198 71.613 48.198z" fill="#161618" data-fill-palette-color="quaternary"></path></g></svg></g></svg></g></svg></g></svg></g><g></g></svg></g><defs></defs></svg><rect width="383.14948710988506" height="247.2" fill="none" stroke="none" visibility="hidden"></rect></g></svg></g></svg>